<?xml version="1.0" standalone="no"?>
<!DOCTYPE svg PUBLIC "-//W3C//DTD SVG 20010904//EN"
 "http://www.w3.org/TR/2001/REC-SVG-20010904/DTD/svg10.dtd">
<svg version="1.0" xmlns="http://www.w3.org/2000/svg"
 width="512.000000pt" height="512.000000pt" viewBox="0 0 512.000000 512.000000"
 preserveAspectRatio="xMidYMid meet">

<g transform="translate(0.000000,512.000000) scale(0.100000,-0.100000)"
fill="#000000" stroke="none">
<path d="M2375 4469 c-319 -44 -601 -184 -830 -414 -210 -209 -344 -459 -402
-752 -21 -109 -24 -385 -5 -486 48 -253 144 -429 412 -752 294 -353 357 -489
367 -793 l6 -152 637 0 637 0 6 152 c10 308 70 431 407 838 224 271 315 439
367 680 26 125 24 399 -5 532 -64 295 -189 526 -397 733 -209 210 -459 344
-746 400 -100 20 -356 28 -454 14z m358 -324 c300 -45 580 -223 756 -479 48
-70 126 -240 150 -326 63 -233 49 -471 -38 -665 -46 -101 -142 -239 -301 -430
-261 -314 -359 -493 -401 -732 l-12 -73 -328 0 -327 0 -12 68 c-15 91 -61 224
-109 320 -59 116 -144 237 -302 427 -216 261 -285 372 -334 542 -78 267 -14
622 158 872 244 356 670 541 1100 476z"/>
<path d="M1920 800 l0 -160 640 0 640 0 0 160 0 160 -640 0 -640 0 0 -160z"/>
</g>
</svg>
