<?xml version="1.0" standalone="no"?>
<!DOCTYPE svg PUBLIC "-//W3C//DTD SVG 20010904//EN"
 "http://www.w3.org/TR/2001/REC-SVG-20010904/DTD/svg10.dtd">
<svg version="1.0" xmlns="http://www.w3.org/2000/svg"
 width="512.000000pt" height="512.000000pt" viewBox="0 0 512.000000 512.000000"
 preserveAspectRatio="xMidYMid meet">

<g transform="translate(0.000000,512.000000) scale(0.100000,-0.100000)"
fill="#000000" stroke="none">
<path d="M2965 5110 c-155 -23 -306 -96 -424 -204 -96 -90 -184 -247 -216
-386 -27 -123 -18 -312 20 -402 7 -17 -28 -18 -659 -18 l-666 0 0 -663 0 -663
-68 17 c-88 23 -258 25 -355 3 -401 -90 -663 -492 -581 -892 32 -158 93 -270
209 -388 131 -133 275 -202 460 -223 87 -10 229 -1 280 19 59 22 55 68 55
-650 l0 -660 741 0 c589 0 739 3 733 13 -5 6 -24 32 -43 57 -86 113 -141 284
-141 439 1 214 71 390 215 536 119 121 248 190 414 221 365 69 745 -157 857
-511 79 -249 38 -493 -118 -702 l-39 -53 741 0 740 0 0 2050 0 2050 -664 0
-663 0 19 68 c15 50 20 97 20 187 0 144 -28 256 -95 375 -54 96 -178 223 -272
278 -152 89 -335 127 -500 102z"/>
</g>
</svg>
