<svg xmlns="http://www.w3.org/2000/svg" viewBox="502.5 86.25 60 60" fill="none" width="60" height="60">
    <path
        d="M554.754 119.37C554.094 119.37 553.404 119.159 552.744 119.009C551.408 118.709 550.093 118.317 548.813 117.835C547.419 117.326 545.887 117.353 544.513 117.909C543.139 118.465 542.019 119.511 541.367 120.845L540.707 122.23C537.791 120.572 535.099 118.549 532.691 116.209C530.359 113.795 528.341 111.094 526.688 108.169L528.069 107.537C529.401 106.884 530.443 105.759 530.996 104.381C531.551 103.002 531.577 101.467 531.071 100.07C530.593 98.773 530.203 97.445 529.899 96.096C529.749 95.433 529.629 94.741 529.539 94.078C529.176 91.957 528.067 90.037 526.417 88.663C524.766 87.288 522.679 86.55 520.534 86.581H511.498C510.229 86.58 508.974 86.847 507.816 87.366C506.657 87.885 505.62 88.643 504.774 89.592C503.912 90.567 503.269 91.717 502.89 92.964C502.511 94.212 502.406 95.527 502.582 96.818C504.216 109.35 509.923 120.992 518.824 129.938C527.743 138.865 539.349 144.591 551.844 146.228C552.232 146.258 552.624 146.258 553.014 146.228C555.227 146.231 557.364 145.416 559.018 143.939C559.963 143.091 560.721 142.051 561.238 140.889C561.756 139.726 562.022 138.468 562.02 137.195V128.162C562.003 126.082 561.272 124.071 559.948 122.469C558.624 120.867 556.791 119.772 554.754 119.37ZM556.226 137.436C556.224 137.856 556.136 138.271 555.966 138.655C555.795 139.039 555.546 139.382 555.236 139.664C554.906 139.964 554.514 140.188 554.089 140.318C553.663 140.448 553.215 140.482 552.774 140.417C541.571 138.949 531.161 133.829 523.146 125.844C515.123 117.797 509.974 107.319 508.496 96.035C508.433 95.594 508.464 95.143 508.596 94.716C508.725 94.289 508.948 93.897 509.248 93.567C509.531 93.251 509.878 92.999 510.266 92.828C510.654 92.657 511.074 92.57 511.498 92.573H520.504C521.197 92.556 521.876 92.781 522.424 93.209C522.971 93.637 523.354 94.242 523.506 94.921C523.506 95.734 523.776 96.578 523.956 97.391C524.303 98.968 524.766 100.517 525.337 102.027L521.134 104.014C520.412 104.347 519.851 104.954 519.574 105.701C519.274 106.434 519.274 107.256 519.574 107.989C523.894 117.271 531.332 124.732 540.587 129.065C541.318 129.367 542.137 129.367 542.869 129.065C543.613 128.787 544.217 128.224 544.549 127.5L546.441 123.284C547.989 123.851 549.574 124.313 551.183 124.669C551.964 124.85 552.804 125.001 553.614 125.121C554.291 125.274 554.895 125.658 555.322 126.207C555.748 126.756 555.973 127.436 555.956 128.132L556.226 137.436ZM538.515 86.25C537.825 86.25 537.105 86.25 536.413 86.25C535.618 86.318 534.881 86.7 534.366 87.313C533.852 87.925 533.599 88.718 533.668 89.517C533.736 90.315 534.116 91.054 534.727 91.571C535.337 92.088 536.128 92.34 536.925 92.272H538.515C543.292 92.272 547.873 94.175 551.252 97.563C554.629 100.951 556.526 105.546 556.526 110.337C556.526 110.879 556.526 111.391 556.526 111.933C556.461 112.727 556.71 113.516 557.222 114.125C557.734 114.735 558.467 115.116 559.258 115.185H559.498C560.25 115.188 560.976 114.908 561.531 114.401C562.086 113.894 562.433 113.196 562.5 112.445C562.5 111.752 562.5 111.03 562.5 110.337C562.5 103.954 559.974 97.832 555.476 93.316C550.98 88.799 544.879 86.258 538.515 86.25V86.25ZM544.519 110.337C544.519 111.136 544.836 111.902 545.398 112.466C545.961 113.031 546.724 113.348 547.521 113.348C548.317 113.348 549.081 113.031 549.643 112.466C550.206 111.902 550.523 111.136 550.523 110.337C550.523 107.143 549.257 104.08 547.005 101.821C544.753 99.563 541.701 98.294 538.515 98.294C537.72 98.294 536.955 98.611 536.393 99.175C535.83 99.74 535.513 100.506 535.513 101.305C535.513 102.103 535.83 102.869 536.393 103.434C536.955 103.998 537.72 104.316 538.515 104.316C540.107 104.316 541.635 104.95 542.76 106.079C543.887 107.209 544.519 108.74 544.519 110.337Z"
        fill="white" />
</svg>